<svg
    xmlns="http://www.w3.org/2000/svg"
    xmlns:xlink="http://www.w3.org/1999/xlink"
    width="52.211"
    height="38.642"
    viewBox="0 0 52.211 38.642"
    >
    <defs>
        <filter
        id="Union_2"
        x="0"
        y="0"
        width="52.211"
        height="38.443"
        filterUnits="userSpaceOnUse"
        >
        <feOffset input="SourceAlpha" />
        <feGaussianBlur stdDeviation="3" result="blur" />
        <feFlood flood-opacity="0.161" />
        <feComposite operator="in" in2="blur" />
        <feComposite in="SourceGraphic" />
        </filter>
        <filter
        id="_"
        x="13.453"
        y="6.479"
        width="32.163"
        height="32.163"
        filterUnits="userSpaceOnUse"
        >
        <feOffset dx="1" dy="1" input="SourceAlpha" />
        <feGaussianBlur stdDeviation="1" result="blur-2" />
        <feFlood flood-opacity="0.161" />
        <feComposite operator="in" in2="blur-2" />
        <feComposite in="SourceGraphic" />
        </filter>
    </defs>
    <g
        id="Group_15"
        data-name="Group 15"
        transform="translate(-3414.988 104.863)"
    >
        <g
        transform="matrix(1, 0, 0, 1, 3414.99, -104.86)"
        filter="url(#Union_2)"
        >
        <path
            id="Union_2-2"
            data-name="Union 2"
            d="M15.342,19.974,3.2,12.757A3,3,0,0,1,3.2,7.6L15.342.382A2.959,2.959,0,0,1,17.38,0H31.947a4,4,0,0,1,4,4V16.355a4,4,0,0,1-4,4H17.382a2.954,2.954,0,0,1-2.039-.381Z"
            transform="translate(7.26 9.04)"
            fill="#fff"
        />
        </g>
        <g
        transform="matrix(1, 0, 0, 1, 3414.99, -104.86)"
        filter="url(#_)"
        >
        <text
            id="_2"
            data-name="+"
            transform="translate(18.99 19.79) rotate(45)"
            fill="#8fd3f4"
            font-size="21"
            font-family="OCRAStd, OCR A Std"
        >
            <tspan x="0" y="0">+</tspan>
        </text>
        </g>
    </g>
</svg>